<svg xmlns="http://www.w3.org/2000/svg" xmlns:xlink="http://www.w3.org/1999/xlink" width="16" height="16" viewBox="0 0 16 16">
  <defs>
    <clipPath id="clip-path">
      <rect id="Rectangle_405" data-name="Rectangle 405" width="16" height="8.276" fill="none"/>
    </clipPath>
  </defs>
  <g id="favicon" transform="translate(-1416 384)">
    <g id="Group_1168" data-name="Group 1168" transform="translate(1416 -381)">
      <g id="Group_220" data-name="Group 220" clip-path="url(#clip-path)">
        <path id="Path_1526" data-name="Path 1526" d="M125.256,49.541c.053-.578-.76-.8-1.15-.485a.355.355,0,0,0-.148.454,7.321,7.321,0,0,0,.645.656,1.137,1.137,0,0,1,.235,1.32c-.578,1.44-3.181,1.087-3.256-.488a3.221,3.221,0,0,1,.215-1.233c.361-.861,1.3-1.5.908-2.546a1.725,1.725,0,0,0-2.493-.809.776.776,0,0,1,.043.349,2.73,2.73,0,0,0-.643-.568.842.842,0,0,0-.469-.155l.814,1.175c-.344.071-.7.12-1.04.2-.028.006-.032-.012-.027.036a2.108,2.108,0,0,0,.714.163,1.726,1.726,0,0,1,.4.017c.035.223-.141.286-.272.4a2.581,2.581,0,0,0-.218.2c-.257.281-.569.875-.16,1.154.307.209.582-.019.739-.286a2.586,2.586,0,0,0,.262-1.284l.123.283a.912.912,0,0,0,.726.4c0,.024-.041.032-.06.039a.981.981,0,0,1-.645-.057c-.029.606-.407,1.489-1.157,1.292s-.5-1.256-.064-1.654l.28-.253a1.871,1.871,0,0,1-.994-.479l.867-.4-.615-1.074a1.323,1.323,0,0,1,1.2.212,2.032,2.032,0,0,1,3.1,1.891,8.3,8.3,0,0,1-.752,1.67c-.256.695-.374,1.511.466,1.821.3.11.994.1,1.09-.283.092-.369-.332-.563-.546-.767-1.156-1.1.43-2.252,1.572-2.024.421.084.851.472.6.924-.052.093-.169.24-.288.187" transform="translate(-114.19 -44.12)" fill="#008442"/>
        <path id="Path_1527" data-name="Path 1527" d="M1.977,114.757c.127-.014.471-.194.562-.128a.2.2,0,0,1,.054.182c-.061.234-.562.49-.783.537-.14.03-.293.027-.435.044a1.94,1.94,0,0,0-.2.693c-.023.307.06.712.014.99a.222.222,0,0,1-.2.195c-.367.033-.556-.367-.638-.666a1.952,1.952,0,0,1,.013-1.143c-.505.148-.4-.258-.163-.516a.645.645,0,0,1,.364-.183L.829,114a.8.8,0,0,0-.4.155c-.071.049-.166.188-.283.1-.163-.124.143-.566.263-.662.524-.417,1.684-.233,2.357-.319.136-.017.322-.107.437,0,.182.173-.193.532-.347.612A2.585,2.585,0,0,1,1.825,114l-.273.757c.136-.011.292.015.425,0" transform="translate(0 -109.044)" fill="#008442"/>
        <path id="Path_1528" data-name="Path 1528" d="M365.753,164.828a.252.252,0,0,1,.027.225.839.839,0,0,1-.485.347c-.836.11-.656-.877-.695-1.4,0-.027.014-.052-.027-.045a4.941,4.941,0,0,0-.645.982.524.524,0,0,0-.086.328c-.012.182-.341.216-.478.152-.313-.145-.111-.663-.07-.916a1.565,1.565,0,0,0,.015-.583c-.034-.134-.193-.288,0-.393.18-.1.509-.162.6.079l.056.26c.182-.3.557-.694.947-.54.451.178.313.972.355,1.344.034.3.383.064.484.158" transform="translate(-349.793 -157.267)" fill="#008442"/>
        <path id="Path_1529" data-name="Path 1529" d="M130,164.845a.487.487,0,0,0,.167.055c.1,0,.247-.1.314.033.08.156-.067.286-.178.377a.662.662,0,0,1-.594.141c-.508-.122-.36-1-.4-1.371,0-.027,0-.045-.028-.062a4.436,4.436,0,0,0-.627.945,1.473,1.473,0,0,0-.12.242c0,.036.018.074.014.12-.016.193-.357.223-.5.142-.284-.161-.081-.684-.044-.938a1.7,1.7,0,0,0,.013-.549c-.029-.132-.2-.282,0-.392.184-.1.5-.16.6.079l.056.26c.348-.651,1.2-.9,1.284.082a7.5,7.5,0,0,0,.041.836" transform="translate(-123.177 -157.329)" fill="#008442"/>
        <path id="Path_1530" data-name="Path 1530" d="M296.514,164.875c.26.567-.589.659-.853.284a.825.825,0,0,1-.1-.258c-.006-.019.013-.032-.027-.027-.236.341-.653.76-1.1.521-.345-.185-.294-.6-.242-.922.036-.22.163-.558.174-.749.005-.091-.065-.12-.006-.222.093-.161.6-.129.664.092.083.287-.253.857-.2,1.217,0,.02-.007.037.027.027.183-.057.53-.6.627-.783a1.683,1.683,0,0,0,.192-.455c0-.111-.057-.188.1-.25.2-.078.589-.079.587.21,0,.169-.127.474-.153.675-.036.272-.1.738.321.639" transform="translate(-283.3 -157.282)" fill="#008442"/>
        <path id="Path_1531" data-name="Path 1531" d="M61.146,164.783c.263.576-.613.655-.864.277a.991.991,0,0,1-.093-.251c0-.013.009-.038-.027-.027-.018.006-.19.246-.234.29-.255.25-.633.442-.95.171-.261-.223-.205-.561-.157-.862.034-.214.171-.588.174-.767,0-.074-.068-.092-.015-.194.09-.173.608-.141.672.082.081.28-.253.859-.2,1.217,0,.02-.007.037.027.027a.678.678,0,0,0,.108-.072,3.128,3.128,0,0,0,.708-1.168c.008-.108-.055-.185.1-.247.219-.087.591-.082.576.232-.011.224-.141.511-.161.761a.948.948,0,0,0,.034.432.241.241,0,0,0,.306.1" transform="translate(-56.611 -157.19)" fill="#008442"/>
        <path id="Path_1532" data-name="Path 1532" d="M250.442,67.554a2.637,2.637,0,0,1,1.039.107c.461.174.41.467-.011.65a2.84,2.84,0,0,1-1.789.064c-.2-.073-.469-.229-.276-.466a1.788,1.788,0,0,1,1.036-.356" transform="translate(-240.142 -65.053)" fill="#ee6805"/>
        <path id="Path_1533" data-name="Path 1533" d="M234.626,29.518c.293-.017.792.071.5.463a2.192,2.192,0,0,1-1.373.616c-.733.037-.723-.39-.188-.73a2.457,2.457,0,0,1,1.062-.349" transform="translate(-224.579 -28.427)" fill="#ee6805"/>
        <path id="Path_1534" data-name="Path 1534" d="M208.653,4.508a.22.22,0,0,1,.239.222,1.563,1.563,0,0,1-.645,1.108c-.147.1-.42.214-.495-.023a1.378,1.378,0,0,1,.9-1.308" transform="translate(-200.071 -4.34)" fill="#ee6805"/>
        <path id="Path_1535" data-name="Path 1535" d="M174.214,0c.253-.056.5.43.56.625s.157.744-.117.8c-.251.047-.491-.438-.552-.634-.056-.18-.151-.73.108-.788" transform="translate(-167.621 0)" fill="#ee6805"/>
        <path id="Path_1536" data-name="Path 1536" d="M182.236,66.7a.333.333,0,0,1,.207.623c-.481.229-.7-.556-.207-.623" transform="translate(-175.245 -64.234)" fill="#008442"/>
      </g>
    </g>
    <rect id="Rectangle_1097" data-name="Rectangle 1097" width="16" height="16" transform="translate(1416 -384)" fill="none"/>
  </g>
</svg>
