<svg xmlns="http://www.w3.org/2000/svg" xmlns:xlink="http://www.w3.org/1999/xlink" width="16.891" height="16.881" viewBox="0 0 16.891 16.881">
  <defs>
    <clipPath id="clip-path">
      <rect id="Rectangle_416" data-name="Rectangle 416" width="16.891" height="16.881" fill="#ffbc2e"/>
    </clipPath>
  </defs>
  <g id="ic-duck" clip-path="url(#clip-path)">
    <path id="Path_1553" data-name="Path 1553" d="M8.354,16.386l-.006-1.663c-3.3-.529-5.669-3.686-4.472-7a5.4,5.4,0,0,1-1.428-.8c-.15-.127-.662-.752-.709-.775-.37-.181-1.929.21-1.718-.789C.136,4.818.959,4.386,1.045,4.1c.067-.227.033-.744.1-1.072a3.961,3.961,0,0,1,7.579-.4c.133.385.147.789.243,1.181A6.515,6.515,0,0,1,15,5.874a19.94,19.94,0,0,1,1.87,3.076c.109.569-.264.572-.721.579C15.757,12.888,12.443,15,9.219,14.84v1.546h.619v.495H6.622c-.09-.219.32-.495.464-.495ZM3.763,3.042a.556.556,0,0,0,.164,1.1.556.556,0,0,0-.164-1.1" transform="translate(-0.001 0)" fill="#ffbc2e"/>
  </g>
</svg>
