<svg xmlns="http://www.w3.org/2000/svg" width="20" height="20" viewBox="0 0 20 20">
  <g id="ic-edit" transform="translate(-1525 -905)">
    <g id="pencil-square" transform="translate(1527 907.25)">
      <path id="Path_2918" data-name="Path 2918" d="M15.5,1.94a.5.5,0,0,1,0,.706L14.459,3.69l-2-2L13.5.646a.5.5,0,0,1,.707,0L15.5,1.939ZM13.752,4.4l-2-2L4.939,9.21a.5.5,0,0,0-.121.2l-.8,2.414a.25.25,0,0,0,.316.316l2.414-.805a.5.5,0,0,0,.2-.12L13.752,4.4Z" fill="#fff"/>
      <path id="Path_2919" data-name="Path 2919" d="M1,13.5A1.5,1.5,0,0,0,2.5,15h11A1.5,1.5,0,0,0,15,13.5v-6a.5.5,0,0,0-1,0v6a.5.5,0,0,1-.5.5H2.5a.5.5,0,0,1-.5-.5V2.5A.5.5,0,0,1,2.5,2H9A.5.5,0,0,0,9,1H2.5A1.5,1.5,0,0,0,1,2.5Z" fill="#fff" fill-rule="evenodd"/>
    </g>
    <rect id="Rectangle_1097" data-name="Rectangle 1097" width="20" height="20" transform="translate(1525 905)" fill="none"/>
  </g>
</svg>
