<svg xmlns="http://www.w3.org/2000/svg" width="29" height="27.25" viewBox="0 0 29 27.25">
  <g id="ic-upload" transform="translate(0.5 0.5)">
    <path id="Path_2974" data-name="Path 2974" d="M7.711,2.349A9.678,9.678,0,0,1,14,0a8.989,8.989,0,0,1,9.041,8.013A5.7,5.7,0,0,1,28,13.6a5.725,5.725,0,0,1-5.8,5.647H17.5a.875.875,0,0,1,0-1.75h4.7a3.975,3.975,0,0,0,4.046-3.9A3.974,3.974,0,0,0,22.2,9.7h-.875V8.829A7.2,7.2,0,0,0,14,1.75,7.927,7.927,0,0,0,8.853,3.675a5.172,5.172,0,0,0-2.018,3.6v.784l-.779.086A4.759,4.759,0,0,0,1.75,12.806,4.782,4.782,0,0,0,6.617,17.5H10.5a.875.875,0,0,1,0,1.75H6.617A6.532,6.532,0,0,1,0,12.806,6.487,6.487,0,0,1,5.148,6.519a7.36,7.36,0,0,1,2.562-4.17" fill="#ffbc2e" stroke="#ff9100" stroke-width="1" fill-rule="evenodd"/>
    <path id="Path_2975" data-name="Path 2975" d="M10.006,4.256a.875.875,0,0,1,1.239,0l5.25,5.25a.876.876,0,1,1-1.239,1.239L11.5,6.988V22.376a.875.875,0,1,1-1.75,0V6.988L5.995,10.745A.876.876,0,1,1,4.756,9.506Z" transform="translate(3.375 2.999)" fill="#ffbc2e" stroke="#ff9100" stroke-width="1" fill-rule="evenodd"/>
  </g>
</svg>
