<svg id="login-vision" xmlns="http://www.w3.org/2000/svg" xmlns:xlink="http://www.w3.org/1999/xlink" width="462.737" height="416.694" viewBox="0 0 462.737 416.694">
  <defs>
    <clipPath id="clip-path">
      <rect id="Rectangle_5" data-name="Rectangle 5" width="462.737" height="416.694" fill="none"/>
    </clipPath>
  </defs>
  <g id="Group_3" data-name="Group 3" clip-path="url(#clip-path)">
    <path id="Path_3" data-name="Path 3" d="M387.645,373.68a2.053,2.053,0,0,1-1.931-2.736l12.41-34.988a2.049,2.049,0,1,1,3.863,1.371l-12.41,34.988a2.052,2.052,0,0,1-1.931,1.365" transform="translate(-60.235 -52.268)" fill="#534741"/>
    <path id="Path_4" data-name="Path 4" d="M387.648,373.384a2.024,2.024,0,0,1-.473-.055,2.051,2.051,0,0,1-1.526-2.466l8.636-36.583a2.051,2.051,0,0,1,3.992.943l-8.636,36.583a2.052,2.052,0,0,1-1.994,1.579" transform="translate(-60.235 -51.972)" fill="#534741"/>
    <path id="Path_5" data-name="Path 5" d="M453.453,373.756a2.051,2.051,0,0,1-2.042-2.26l3.565-34.571a2.051,2.051,0,0,1,4.081.42l-3.566,34.572a2.051,2.051,0,0,1-2.038,1.839" transform="translate(-70.515 -52.345)" fill="#534741"/>
    <path id="Path_6" data-name="Path 6" d="M453.452,373.757a2.049,2.049,0,0,1-2.05-2.05V337.136a2.05,2.05,0,1,1,4.1,0v34.572a2.049,2.049,0,0,1-2.05,2.05" transform="translate(-70.515 -52.345)" fill="#534741"/>
    <path id="Path_7" data-name="Path 7" d="M451.236,141.091a39.367,39.367,0,1,0,8.451-78.279Z" transform="translate(-70.489 -9.812)" fill="#534741"/>
    <path id="Path_8" data-name="Path 8" d="M348.763,272.987a97.666,97.666,0,1,0,111.6-160.311Z" transform="translate(-54.482 -17.602)" fill="#534741"/>
    <path id="Path_9" data-name="Path 9" d="M361.869,263.341a65.672,65.672,0,0,0,75.042-107.8c-68.6,12.289-83.2,62.239-75.042,107.8" transform="translate(-56.21 -24.298)" fill="#534741"/>
    <path id="Path_10" data-name="Path 10" d="M300.656,319.291a53.842,53.842,0,0,0,54.757-92.724c-32.973,23.248-56.227,51.553-54.757,92.724" transform="translate(-46.956 -35.393)" fill="#534741"/>
    <path id="Path_11" data-name="Path 11" d="M297.953,358a16.626,16.626,0,1,0-10.927-20.819A16.626,16.626,0,0,0,297.953,358" transform="translate(-44.719 -50.848)" fill="#534741"/>
    <path id="Path_12" data-name="Path 12" d="M277.215,345.447a10.36,10.36,0,0,0,6.164-19.783Z" transform="translate(-43.305 -50.873)" fill="#e86060"/>
    <path id="Path_13" data-name="Path 13" d="M306.681,369.588a8.313,8.313,0,1,0-5.464-10.409,8.312,8.312,0,0,0,5.464,10.409" transform="translate(-46.995 -55.196)" fill="#e86060"/>
    <path id="Path_14" data-name="Path 14" d="M422.444,310.47a24.52,24.52,0,1,0,24.52-24.52,24.519,24.519,0,0,0-24.52,24.52" transform="translate(-65.992 -44.669)" fill="#534741"/>
    <path id="Path_15" data-name="Path 15" d="M373.673,310.47a24.52,24.52,0,1,0,24.52-24.52,24.519,24.519,0,0,0-24.52,24.52" transform="translate(-58.373 -44.669)" fill="#534741"/>
    <path id="Path_16" data-name="Path 16" d="M467.176,248.634a2.049,2.049,0,0,1-1.68-3.221,63.621,63.621,0,0,0-15.867-88.566,2.05,2.05,0,0,1,2.342-3.365,67.717,67.717,0,0,1,16.888,94.272,2.044,2.044,0,0,1-1.683.879" transform="translate(-70.101 -23.919)" fill="#fff"/>
    <path id="Path_17" data-name="Path 17" d="M415.961,197.876a2.05,2.05,0,0,1-.921-3.882c15.174-7.608,23.752-13.637,37.6-31.29a2.05,2.05,0,0,1,3.227,2.53c-14.341,18.276-23.241,24.527-38.994,32.426a2.055,2.055,0,0,1-.917.217" transform="translate(-64.658 -25.294)" fill="#fff"/>
    <path id="Path_18" data-name="Path 18" d="M418.467,216.071a2.05,2.05,0,0,1-.553-4.024c14.724-4.144,31.753-16.618,45.553-33.366a2.049,2.049,0,1,1,3.163,2.606c-14.309,17.37-32.105,30.344-47.606,34.7a2.017,2.017,0,0,1-.557.078" transform="translate(-65.05 -27.796)" fill="#fff"/>
    <path id="Path_19" data-name="Path 19" d="M421,236.4a2.05,2.05,0,0,1-.246-4.085c15.843-1.933,36.44-15.43,50.087-32.825a2.05,2.05,0,0,1,3.227,2.531c-14.491,18.469-35.717,32.278-52.817,34.364a2.111,2.111,0,0,1-.251.015" transform="translate(-65.446 -31.041)" fill="#fff"/>
    <path id="Path_20" data-name="Path 20" d="M424.048,257.046a22.081,22.081,0,0,1-5.815-.731,2.05,2.05,0,0,1,1.081-3.956c13.048,3.559,38.088-9.9,52.491-28.257a2.05,2.05,0,0,1,3.227,2.53c-12.267,15.632-34.72,30.413-50.983,30.413" transform="translate(-65.098 -34.885)" fill="#fff"/>
    <path id="Path_21" data-name="Path 21" d="M480.473,147.249a2.05,2.05,0,0,1-.989-3.848c6.27-3.439,10.836-8.706,14.371-16.576a2.05,2.05,0,1,1,3.74,1.679c-3.919,8.726-9.046,14.6-16.137,18.492a2.051,2.051,0,0,1-.985.252" transform="translate(-74.736 -19.623)" fill="#fff"/>
    <path id="Path_22" data-name="Path 22" d="M484.447,126.117a2.05,2.05,0,0,1-.989-3.848c6.27-3.439,10.836-8.706,14.371-16.576a2.05,2.05,0,1,1,3.74,1.679c-3.92,8.726-9.046,14.6-16.137,18.492a2.051,2.051,0,0,1-.985.252" transform="translate(-75.357 -16.321)" fill="#fff"/>
    <path id="Path_23" data-name="Path 23" d="M482.279,111.888a2.05,2.05,0,0,1-1.133-3.76c5.5-3.641,11.863-10.675,13.657-18.18a2.05,2.05,0,1,1,3.988.953c-2.194,9.181-9.657,16.861-15.382,20.647a2.04,2.04,0,0,1-1.129.34" transform="translate(-75.018 -13.805)" fill="#fff"/>
    <path id="Path_24" data-name="Path 24" d="M477.313,101.179a2.05,2.05,0,0,1-1.3-3.639c5.225-4.254,10.888-11.509,11.763-18.128a2.049,2.049,0,0,1,4.064.537c-1.091,8.264-7.813,16.354-13.241,20.77a2.032,2.032,0,0,1-1.291.461" transform="translate(-74.242 -12.127)" fill="#fff"/>
    <path id="Path_25" data-name="Path 25" d="M469.333,92.868a2.049,2.049,0,0,1-1.44-3.509c5.885-5.809,9.151-12.427,9.709-19.671a2.015,2.015,0,0,1,2.2-1.887A2.05,2.05,0,0,1,481.69,70c-.636,8.258-4.307,15.752-10.918,22.276a2.044,2.044,0,0,1-1.44.591" transform="translate(-72.996 -10.59)" fill="#fff"/>
    <path id="Path_26" data-name="Path 26" d="M300.735,347.863a4.658,4.658,0,1,0-3.061-5.833,4.659,4.659,0,0,0,3.061,5.833" transform="translate(-46.468 -52.918)" fill="#fff"/>
    <path id="Path_27" data-name="Path 27" d="M292.106,371.771a2.024,2.024,0,0,1-.3-.022,2.05,2.05,0,0,1-1.729-2.329l1.772-11.929a2.05,2.05,0,0,1,4.056.6l-1.772,11.929a2.051,2.051,0,0,1-2.025,1.748" transform="translate(-45.31 -55.572)" fill="#534741"/>
    <path id="Path_28" data-name="Path 28" d="M292.1,372.1a2.049,2.049,0,0,1-1.654-3.259l7.43-10.167a2.05,2.05,0,1,1,3.311,2.418l-7.43,10.167a2.047,2.047,0,0,1-1.657.84" transform="translate(-45.31 -55.898)" fill="#534741"/>
    <path id="Path_29" data-name="Path 29" d="M430.049,339.521a2.047,2.047,0,0,1-1.085-.311c-8.6-5.376-13.825-10.294-15.909-14.981a92.9,92.9,0,0,1-40.568-7.712,2.05,2.05,0,0,1,1.609-3.772,88.427,88.427,0,0,0,40.228,7.314,2,2,0,0,1,2.086,1.456c1.231,4.1,6.188,8.879,14.728,14.218a2.05,2.05,0,0,1-1.089,3.789" transform="translate(-57.993 -48.829)" fill="#fff"/>
    <path id="Path_30" data-name="Path 30" d="M390.116,380.157H363.743a2.05,2.05,0,0,1,0-4.1h26.373a2.05,2.05,0,0,1,0,4.1" transform="translate(-56.501 -58.745)" fill="#534741"/>
    <path id="Path_31" data-name="Path 31" d="M464.2,380.157H437.824a2.05,2.05,0,0,1,0-4.1H464.2a2.05,2.05,0,0,1,0,4.1" transform="translate(-68.074 -58.745)" fill="#534741"/>
    <path id="Path_32" data-name="Path 32" d="M461.154,313.314a2.05,2.05,0,0,1-.78-3.946,96.233,96.233,0,0,0,27.847-17.812,2.05,2.05,0,0,1,2.751,3.04,100.3,100.3,0,0,1-29.037,18.561,2.023,2.023,0,0,1-.781.156" transform="translate(-71.718 -45.462)" fill="#fff"/>
    <path id="Path_33" data-name="Path 33" d="M218.741,255.672a2.052,2.052,0,0,1-1.931-1.365L204.4,219.319a2.05,2.05,0,0,1,3.863-1.371l12.41,34.988a2.053,2.053,0,0,1-1.931,2.736" transform="translate(-31.912 -33.833)" fill="#534741"/>
    <path id="Path_34" data-name="Path 34" d="M219.438,255.375a2.052,2.052,0,0,1-1.994-1.58l-8.634-36.583a2.051,2.051,0,0,1,3.992-.941l8.634,36.583a2.05,2.05,0,0,1-1.526,2.466,2.023,2.023,0,0,1-.473.055" transform="translate(-32.61 -33.538)" fill="#534741"/>
    <path id="Path_35" data-name="Path 35" d="M154.571,255.747a2.051,2.051,0,0,1-2.038-1.839l-3.566-34.572a2.051,2.051,0,0,1,4.081-.42l3.565,34.571a2.05,2.05,0,0,1-1.83,2.25,2,2,0,0,1-.212.011" transform="translate(-23.269 -33.91)" fill="#534741"/>
    <path id="Path_36" data-name="Path 36" d="M155.234,255.748a2.049,2.049,0,0,1-2.05-2.05V219.127a2.049,2.049,0,1,1,4.1,0V253.7a2.049,2.049,0,0,1-2.049,2.05" transform="translate(-23.929 -33.91)" fill="#534741"/>
    <path id="Path_37" data-name="Path 37" d="M115.2,83.182A39.367,39.367,0,0,1,46.124,45.394Z" transform="translate(-6.45 -7.091)" fill="#fff"/>
    <path id="Path_38" data-name="Path 38" d="M271.978,90.111a97.666,97.666,0,1,1-195.331,0Z" transform="translate(-11.973 -14.077)" fill="#fff"/>
    <path id="Path_39" data-name="Path 39" d="M260.225,84.361a65.672,65.672,0,0,1-131.344,0c49.281-49.281,98.618-32.726,131.344,0" transform="translate(-20.133 -8.326)" fill="#fff"/>
    <path id="Path_40" data-name="Path 40" d="M241.625,26.3a53.842,53.842,0,0,1,0,107.685C225.054,97.2,219.424,61,241.625,26.3" transform="translate(-35.462 -4.109)" fill="#fff"/>
    <path id="Path_41" data-name="Path 41" d="M277.582,23.223A16.626,16.626,0,1,1,260.957,6.6a16.625,16.625,0,0,1,16.625,16.625" transform="translate(-38.168 -1.031)" fill="#fff"/>
    <path id="Path_42" data-name="Path 42" d="M272.477,0a10.36,10.36,0,0,1-10.36,10.36A10.361,10.361,0,0,1,251.756,0Z" transform="translate(-39.328)" fill="#e86060"/>
    <path id="Path_43" data-name="Path 43" d="M286.572,34.614a8.313,8.313,0,1,1-8.313-8.313,8.313,8.313,0,0,1,8.313,8.313" transform="translate(-42.169 -4.109)" fill="#e86060"/>
    <path id="Path_44" data-name="Path 44" d="M177.921,192.461a24.52,24.52,0,1,1-24.52-24.52,24.519,24.519,0,0,1,24.52,24.52" transform="translate(-20.133 -26.235)" fill="#fff"/>
    <path id="Path_45" data-name="Path 45" d="M226.692,192.461a24.52,24.52,0,1,1-24.52-24.52,24.519,24.519,0,0,1,24.52,24.52" transform="translate(-27.752 -26.235)" fill="#fff"/>
    <path id="Path_46" data-name="Path 46" d="M194.173,157.453a67.8,67.8,0,0,1-67.721-67.721,2.05,2.05,0,0,1,4.1,0,63.694,63.694,0,0,0,63.622,63.621,2.05,2.05,0,0,1,0,4.1" transform="translate(-19.754 -13.697)" fill="#534741"/>
    <path id="Path_47" data-name="Path 47" d="M129.7,103.017a2.05,2.05,0,0,1-.116-4.1c22.4-1.283,32.252-4.878,47.169-12.984a2.049,2.049,0,1,1,1.958,3.6c-15.484,8.416-25.7,12.148-48.89,13.476-.04,0-.08,0-.12,0" transform="translate(-19.941 -13.385)" fill="#534741"/>
    <path id="Path_48" data-name="Path 48" d="M135.8,121.254a2.05,2.05,0,0,1-.165-4.093c21.632-1.755,41.6-8.606,53.411-18.323A2.051,2.051,0,0,1,191.652,102c-12.437,10.228-33.252,17.422-55.685,19.243-.055.005-.112.007-.167.007" transform="translate(-20.894 -15.367)" fill="#534741"/>
    <path id="Path_49" data-name="Path 49" d="M148.1,139.154a2.05,2.05,0,0,1-.116-4.1c22.075-1.263,44.92-10.456,55.56-22.353a2.049,2.049,0,1,1,3.055,2.732c-11.483,12.842-34.945,22.372-58.379,23.714-.04,0-.08,0-.12,0" transform="translate(-22.816 -17.499)" fill="#534741"/>
    <path id="Path_50" data-name="Path 50" d="M167.414,153.516a2.05,2.05,0,0,1-.116-4.1c23.3-1.335,48.643-14.173,53.184-26.936a2.05,2.05,0,0,1,3.864,1.373c-5.649,15.883-34.475,28.377-56.811,29.657-.04,0-.08,0-.12,0" transform="translate(-25.833 -18.921)" fill="#534741"/>
    <path id="Path_51" data-name="Path 51" d="M87.2,115.648a48.256,48.256,0,0,1-8.931-.89,2.05,2.05,0,0,1,.757-4.029c8.486,1.6,15.417.856,21.816-2.322a2.049,2.049,0,1,1,1.822,3.671,33.945,33.945,0,0,1-15.464,3.57" transform="translate(-11.966 -16.901)" fill="#534741"/>
    <path id="Path_52" data-name="Path 52" d="M67.59,106.835a48.261,48.261,0,0,1-8.932-.89,2.05,2.05,0,0,1,.757-4.029c8.483,1.6,15.412.856,21.818-2.322a2.049,2.049,0,1,1,1.822,3.671,33.934,33.934,0,0,1-15.464,3.57" transform="translate(-8.902 -15.524)" fill="#534741"/>
    <path id="Path_53" data-name="Path 53" d="M57.825,96.379A30.291,30.291,0,0,1,46.8,94.453a2.051,2.051,0,0,1,1.5-3.818c7.185,2.817,16.591,1.617,22.723-.821a2.05,2.05,0,1,1,1.514,3.81,41.33,41.33,0,0,1-14.714,2.756" transform="translate(-7.108 -14.007)" fill="#534741"/>
    <path id="Path_54" data-name="Path 54" d="M54.68,85A27.93,27.93,0,0,1,42,82.341,2.05,2.05,0,0,1,43.879,78.7c5.934,3.065,15.125,2.563,21.6.7a2.05,2.05,0,0,1,1.13,3.942A44.656,44.656,0,0,1,54.68,85" transform="translate(-6.387 -12.258)" fill="#534741"/>
    <path id="Path_55" data-name="Path 55" d="M56.755,72.487a32.8,32.8,0,0,1-16.886-4.495,2.051,2.051,0,0,1,2.078-3.535c6.262,3.681,13.559,4.779,21.692,3.27a2.049,2.049,0,1,1,.748,4.03,41.667,41.667,0,0,1-7.633.731" transform="translate(-6.07 -10.025)" fill="#534741"/>
    <path id="Path_56" data-name="Path 56" d="M267.83,22.3a4.658,4.658,0,1,1-4.659-4.659A4.659,4.659,0,0,1,267.83,22.3" transform="translate(-40.383 -2.756)" fill="#534741"/>
    <path id="Path_57" data-name="Path 57" d="M291.337,22.806a2.169,2.169,0,0,1-.318-.024L279.1,20.926a2.05,2.05,0,0,1,.633-4.052l11.917,1.856a2.05,2.05,0,0,1-.314,4.075" transform="translate(-43.329 -2.632)" fill="#534741"/>
    <path id="Path_58" data-name="Path 58" d="M279.417,27.219a2.051,2.051,0,0,1-.662-3.991l11.917-4.07A2.05,2.05,0,0,1,292,23.038l-11.918,4.07a2.044,2.044,0,0,1-.662.111" transform="translate(-43.328 -2.976)" fill="#534741"/>
    <path id="Path_59" data-name="Path 59" d="M168.127,221.511a2.05,2.05,0,0,1-1.089-3.789c8.54-5.338,13.5-10.122,14.732-14.219a2.01,2.01,0,0,1,2.084-1.454,88.534,88.534,0,0,0,40.226-7.314,2.05,2.05,0,0,1,1.609,3.772,92.9,92.9,0,0,1-40.566,7.712c-2.086,4.687-7.312,9.6-15.91,14.981a2.046,2.046,0,0,1-1.085.311" transform="translate(-25.943 -30.395)" fill="#534741"/>
    <path id="Path_60" data-name="Path 60" d="M240.059,262.148H213.687a2.05,2.05,0,0,1,0-4.1h26.373a2.05,2.05,0,0,1,0,4.1" transform="translate(-33.061 -40.311)" fill="#534741"/>
    <path id="Path_61" data-name="Path 61" d="M165.978,262.148H139.606a2.05,2.05,0,0,1,0-4.1h26.373a2.05,2.05,0,0,1,0,4.1" transform="translate(-21.488 -40.311)" fill="#534741"/>
    <path id="Path_62" data-name="Path 62" d="M142.264,195.306a2.022,2.022,0,0,1-.781-.156,100.3,100.3,0,0,1-29.037-18.561,2.05,2.05,0,0,1,2.751-3.04,96.232,96.232,0,0,0,27.847,17.811,2.05,2.05,0,0,1-.781,3.946" transform="translate(-17.46 -27.028)" fill="#534741"/>
    <path id="Path_63" data-name="Path 63" d="M495.912,490.849a1.772,1.772,0,0,1-1.666-2.361l4.471-12.607a1.768,1.768,0,0,1,3.333,1.183l-4.471,12.607a1.77,1.77,0,0,1-1.666,1.178" transform="translate(-77.192 -74.155)" fill="#534741"/>
    <path id="Path_64" data-name="Path 64" d="M495.913,490.742a1.733,1.733,0,0,1-.408-.047,1.769,1.769,0,0,1-1.316-2.128l3.112-13.182a1.769,1.769,0,0,1,3.444.813l-3.112,13.182a1.77,1.77,0,0,1-1.72,1.362" transform="translate(-77.192 -74.049)" fill="#534741"/>
    <path id="Path_65" data-name="Path 65" d="M519.625,490.876a1.678,1.678,0,0,1-.183-.009,1.769,1.769,0,0,1-1.579-1.941l1.285-12.457a1.769,1.769,0,0,1,3.52.363l-1.285,12.457a1.769,1.769,0,0,1-1.758,1.587" transform="translate(-80.896 -74.183)" fill="#534741"/>
    <path id="Path_66" data-name="Path 66" d="M519.624,490.876a1.768,1.768,0,0,1-1.769-1.769V476.651a1.769,1.769,0,0,1,3.537,0v12.457a1.768,1.768,0,0,1-1.769,1.769" transform="translate(-80.896 -74.183)" fill="#534741"/>
    <path id="Path_67" data-name="Path 67" d="M516.842,437.983a14.186,14.186,0,0,0,24.89-13.617Z" transform="translate(-80.738 -66.292)" fill="#fbb03b"/>
    <path id="Path_68" data-name="Path 68" d="M464.989,429.5a35.193,35.193,0,0,0,35.193,35.193c19.437,0,24.442-7.21,24.442-26.647-14.507-14.507-36.172-16.494-59.635-8.547" transform="translate(-72.638 -66.372)" fill="#fbb03b"/>
    <path id="Path_69" data-name="Path 69" d="M463.013,420.814a13.361,13.361,0,1,0,13.36-13.361,13.36,13.36,0,0,0-13.36,13.361" transform="translate(-72.329 -63.65)" fill="#fbb03b"/>
    <path id="Path_70" data-name="Path 70" d="M508.641,467.232a8.836,8.836,0,1,0,8.835-8.835,8.835,8.835,0,0,0-8.835,8.835" transform="translate(-79.457 -71.608)" fill="#fbb03b"/>
    <path id="Path_71" data-name="Path 71" d="M491.067,467.232A8.836,8.836,0,1,0,499.9,458.4a8.835,8.835,0,0,0-8.835,8.835" transform="translate(-76.711 -71.608)" fill="#fbb03b"/>
    <path id="Path_72" data-name="Path 72" d="M474.411,420.073a3.743,3.743,0,1,0,3.744-3.744,3.744,3.744,0,0,0-3.744,3.744" transform="translate(-74.109 -65.036)" fill="#534741"/>
    <path id="Path_73" data-name="Path 73" d="M459.17,421.92a1.768,1.768,0,0,1-.8-3.348l5.638-2.836a1.768,1.768,0,0,1,1.589,3.16l-5.639,2.836a1.771,1.771,0,0,1-.792.188" transform="translate(-71.452 -64.914)" fill="#534741"/>
    <path id="Path_74" data-name="Path 74" d="M464.807,424.372a1.758,1.758,0,0,1-.571-.1L458.6,422.35A1.768,1.768,0,0,1,459.74,419l5.638,1.926a1.769,1.769,0,0,1-.571,3.443" transform="translate(-71.452 -65.439)" fill="#534741"/>
    <path id="Path_75" data-name="Path 75" d="M496.8,493.182h-9.5a1.768,1.768,0,0,1,0-3.536h9.5a1.768,1.768,0,1,1,0,3.536" transform="translate(-75.847 -76.489)" fill="#534741"/>
    <path id="Path_76" data-name="Path 76" d="M523.5,493.182h-9.5a1.768,1.768,0,0,1,0-3.536h9.5a1.768,1.768,0,1,1,0,3.536" transform="translate(-80.017 -76.489)" fill="#534741"/>
    <path id="Path_77" data-name="Path 77" d="M51.012,298.252a1.772,1.772,0,0,0,1.666-2.361l-4.471-12.607a1.768,1.768,0,0,0-3.333,1.183l4.471,12.607a1.77,1.77,0,0,0,1.666,1.178" transform="translate(-6.994 -44.069)" fill="#534741"/>
    <path id="Path_78" data-name="Path 78" d="M51.262,298.145a1.733,1.733,0,0,0,.408-.047,1.769,1.769,0,0,0,1.316-2.128l-3.112-13.182a1.769,1.769,0,0,0-3.443.813l3.112,13.182a1.77,1.77,0,0,0,1.72,1.362" transform="translate(-7.246 -43.962)" fill="#534741"/>
    <path id="Path_79" data-name="Path 79" d="M27.888,298.279a1.686,1.686,0,0,0,.183-.009,1.769,1.769,0,0,0,1.579-1.941l-1.285-12.457a1.769,1.769,0,0,0-3.519.363l1.285,12.457a1.769,1.769,0,0,0,1.758,1.587" transform="translate(-3.88 -44.097)" fill="#534741"/>
    <path id="Path_80" data-name="Path 80" d="M28.128,298.279A1.768,1.768,0,0,0,29.9,296.51V284.054a1.769,1.769,0,1,0-3.537,0V296.51a1.768,1.768,0,0,0,1.769,1.769" transform="translate(-4.118 -44.097)" fill="#534741"/>
    <path id="Path_81" data-name="Path 81" d="M26.633,245.386a14.186,14.186,0,1,1-24.89-13.617Z" transform="translate(0 -36.205)" fill="#fbb03b"/>
    <path id="Path_82" data-name="Path 82" d="M72.377,236.9a35.193,35.193,0,0,1-35.193,35.193c-19.437,0-24.442-7.21-24.442-26.647,14.507-14.507,36.172-16.494,59.635-8.547" transform="translate(-1.99 -36.286)" fill="#fbb03b"/>
    <path id="Path_83" data-name="Path 83" d="M80.446,228.217a13.361,13.361,0,1,1-13.361-13.361,13.36,13.36,0,0,1,13.361,13.361" transform="translate(-8.392 -33.563)" fill="#fbb03b"/>
    <path id="Path_84" data-name="Path 84" d="M36.493,274.635a8.836,8.836,0,1,1-8.835-8.835,8.835,8.835,0,0,1,8.835,8.835" transform="translate(-2.94 -41.522)" fill="#fbb03b"/>
    <path id="Path_85" data-name="Path 85" d="M54.067,274.635a8.836,8.836,0,1,1-8.835-8.835,8.835,8.835,0,0,1,8.835,8.835" transform="translate(-5.686 -41.522)" fill="#fbb03b"/>
    <path id="Path_86" data-name="Path 86" d="M72.609,227.477a3.743,3.743,0,1,1-3.744-3.744,3.744,3.744,0,0,1,3.744,3.744" transform="translate(-10.173 -34.95)" fill="#534741"/>
    <path id="Path_87" data-name="Path 87" d="M87.537,229.323a1.768,1.768,0,0,0,.795-3.348l-5.638-2.836A1.768,1.768,0,1,0,81.1,226.3l5.639,2.836a1.774,1.774,0,0,0,.793.188" transform="translate(-12.517 -34.828)" fill="#534741"/>
    <path id="Path_88" data-name="Path 88" d="M81.9,231.775a1.757,1.757,0,0,0,.571-.1l5.639-1.926a1.768,1.768,0,0,0-1.143-3.346l-5.638,1.926a1.769,1.769,0,0,0,.571,3.443" transform="translate(-12.518 -35.353)" fill="#534741"/>
    <path id="Path_89" data-name="Path 89" d="M49.189,300.585h9.5a1.768,1.768,0,0,0,0-3.536h-9.5a1.768,1.768,0,1,0,0,3.536" transform="translate(-7.408 -46.403)" fill="#534741"/>
    <path id="Path_90" data-name="Path 90" d="M22.5,300.585H32a1.768,1.768,0,1,0,0-3.536H22.5a1.768,1.768,0,1,0,0,3.536" transform="translate(-3.238 -46.403)" fill="#534741"/>
    <path id="Path_91" data-name="Path 91" d="M137,346.655a1.77,1.77,0,0,1-1.666-1.178L130.86,332.87a1.768,1.768,0,0,1,3.333-1.183l4.473,12.607A1.772,1.772,0,0,1,137,346.655" transform="translate(-20.426 -51.63)" fill="#534741"/>
    <path id="Path_92" data-name="Path 92" d="M137.25,346.548a1.77,1.77,0,0,1-1.72-1.362L132.418,332a1.769,1.769,0,0,1,3.443-.813l3.112,13.182a1.769,1.769,0,0,1-1.316,2.128,1.73,1.73,0,0,1-.408.047" transform="translate(-20.678 -51.524)" fill="#534741"/>
    <path id="Path_93" data-name="Path 93" d="M113.874,346.682a1.769,1.769,0,0,1-1.758-1.587l-1.285-12.457a1.769,1.769,0,0,1,3.519-.363l1.285,12.457a1.769,1.769,0,0,1-1.579,1.941,1.678,1.678,0,0,1-.183.009" transform="translate(-17.312 -51.658)" fill="#534741"/>
    <path id="Path_94" data-name="Path 94" d="M114.114,346.682a1.768,1.768,0,0,1-1.769-1.769V332.457a1.769,1.769,0,0,1,3.537,0v12.457a1.768,1.768,0,0,1-1.769,1.769" transform="translate(-17.55 -51.658)" fill="#534741"/>
    <path id="Path_95" data-name="Path 95" d="M123.121,289.262A14.186,14.186,0,1,1,114.3,262.3Z" transform="translate(-16.327 -40.975)" fill="#fbb03b"/>
    <path id="Path_96" data-name="Path 96" d="M160.236,315.938a35.192,35.192,0,0,1-49.745,1.566c-14.17-13.3-12.883-21.987.421-36.155,20.507-.646,37.661,12.735,49.324,34.589" transform="translate(-15.682 -43.947)" fill="#fbb03b"/>
    <path id="Path_97" data-name="Path 97" d="M173.315,314.382a13.361,13.361,0,1,1-.595-18.886,13.361,13.361,0,0,1,.595,18.886" transform="translate(-23.466 -45.595)" fill="#fbb03b"/>
    <path id="Path_98" data-name="Path 98" d="M122.48,323.038a8.836,8.836,0,1,1-8.835-8.835,8.835,8.835,0,0,1,8.835,8.835" transform="translate(-16.373 -49.083)" fill="#fbb03b"/>
    <path id="Path_99" data-name="Path 99" d="M140.054,323.038a8.836,8.836,0,1,1-8.835-8.835,8.835,8.835,0,0,1,8.835,8.835" transform="translate(-19.118 -49.083)" fill="#fbb03b"/>
    <path id="Path_100" data-name="Path 100" d="M169.81,307.742a3.744,3.744,0,1,1-.166-5.291,3.743,3.743,0,0,1,.166,5.291" transform="translate(-25.516 -47.088)" fill="#534741"/>
    <path id="Path_101" data-name="Path 101" d="M180.99,319.637a1.772,1.772,0,0,1-1.661-1.161l-2.17-5.928a1.769,1.769,0,0,1,3.322-1.216l2.171,5.928a1.772,1.772,0,0,1-1.661,2.377" transform="translate(-27.658 -48.453)" fill="#534741"/>
    <path id="Path_102" data-name="Path 102" d="M180.385,320.279a1.758,1.758,0,0,1-.727-.158l-5.429-2.457a1.768,1.768,0,1,1,1.457-3.222l5.43,2.457a1.769,1.769,0,0,1-.731,3.38" transform="translate(-27.054 -49.095)" fill="#534741"/>
    <path id="Path_103" data-name="Path 103" d="M144.68,348.988h-9.5a1.768,1.768,0,0,1,0-3.536h9.5a1.768,1.768,0,1,1,0,3.536" transform="translate(-20.84 -53.964)" fill="#534741"/>
    <path id="Path_104" data-name="Path 104" d="M117.986,348.988h-9.5a1.768,1.768,0,1,1,0-3.536h9.5a1.768,1.768,0,1,1,0,3.536" transform="translate(-16.67 -53.964)" fill="#534741"/>
  </g>
</svg>
