<svg xmlns="http://www.w3.org/2000/svg" width="114.071" height="59" viewBox="0 0 114.071 59">
  <g id="logo" transform="translate(0 0)">
    <g id="Group_1170" data-name="Group 1170">
      <path id="Path_1526" data-name="Path 1526" d="M166.275,72.411c.381-4.118-5.416-5.67-8.2-3.459-1.005.8-1.749,1.982-1.055,3.239.682,1.235,3.5,3.418,4.6,4.68,2.6,3,3.17,5.693,1.675,9.414-4.124,10.266-22.68,7.75-23.212-3.477a22.963,22.963,0,0,1,1.53-8.791c2.576-6.141,9.249-10.715,6.471-18.151-2.434-6.512-12.031-10.247-17.776-5.771a5.531,5.531,0,0,1,.306,2.487,19.462,19.462,0,0,0-4.587-4.048,6,6,0,0,0-3.341-1.1l5.8,8.374c-2.456.505-4.971.854-7.413,1.42-.2.046-.225-.087-.192.254a15.031,15.031,0,0,0,5.093,1.161c.494.034,2.674-.118,2.844.121.251,1.591-1.007,2.036-1.94,2.846a18.4,18.4,0,0,0-1.551,1.413c-1.833,2-4.06,6.236-1.137,8.228,2.19,1.493,4.148-.139,5.267-2.039,1.673-2.843,1.755-5.934,1.868-9.151l.879,2.019c.992,1.96,3.163,2.529,5.177,2.879.019.171-.294.227-.428.277-1.537.573-3.111.063-4.6-.408-.209,4.317-2.9,10.614-8.25,9.213-5.292-1.387-3.543-8.956-.454-11.792l2-1.8a13.337,13.337,0,0,1-7.087-3.416l6.183-2.842-4.381-7.66c2.892-.513,6.327-.743,8.57,1.509,9.595-6.366,23.725,1.78,22.092,13.484-.627,4.492-3.826,7.739-5.363,11.907C143.839,78.381,143,84.2,148.986,86.409c2.132.788,7.087.732,7.773-2.019.656-2.632-2.364-4.015-3.894-5.467-8.24-7.82,3.067-16.055,11.209-14.427,3,.6,6.066,3.365,4.251,6.584-.374.663-1.206,1.71-2.051,1.331" transform="translate(-87.382 -33.762)" fill="#008442"/>
      <path id="Path_1527" data-name="Path 1527" d="M14.1,124.173c.909-.1,3.361-1.381,4.007-.911a1.4,1.4,0,0,1,.382,1.3c-.434,1.668-4,3.492-5.585,3.828-1,.212-2.088.193-3.1.314a13.834,13.834,0,0,0-1.436,4.943c-.162,2.186.429,5.077.1,7.055a1.584,1.584,0,0,1-1.445,1.39c-2.614.237-3.967-2.62-4.546-4.746A13.914,13.914,0,0,1,2.56,129.2c-3.6,1.056-2.831-1.84-1.162-3.676a4.6,4.6,0,0,1,2.594-1.3l1.92-5.461a5.723,5.723,0,0,0-2.824,1.106c-.5.346-1.187,1.343-2.021.709-1.162-.883,1.021-4.037,1.878-4.719,3.734-2.972,12.009-1.664,16.806-2.272.97-.123,2.292-.765,3.117.018,1.3,1.236-1.375,3.8-2.474,4.361-2.147,1.107-5.039.694-7.377.809l-1.946,5.4c.967-.078,2.082.107,3.029,0" transform="translate(0 -83.444)" fill="#008442"/>
      <path id="Path_1528" data-name="Path 1528" d="M381.452,174.252a1.794,1.794,0,0,1,.19,1.606,5.98,5.98,0,0,1-3.455,2.474c-5.957.782-4.68-6.254-4.952-9.978-.014-.192.1-.373-.192-.319-.867.363-4.027,5.873-4.6,7a3.736,3.736,0,0,0-.613,2.339c-.086,1.3-2.429,1.539-3.411,1.084-2.233-1.035-.79-4.73-.5-6.531a11.153,11.153,0,0,0,.108-4.157c-.239-.953-1.373-2.052.024-2.8,1.282-.685,3.632-1.153,4.274.565l.4,1.853c1.3-2.173,3.972-4.947,6.754-3.85,3.212,1.267,2.228,6.927,2.529,9.585.246,2.17,2.729.455,3.448,1.129" transform="translate(-267.672 -120.345)" fill="#008442"/>
      <path id="Path_1529" data-name="Path 1529" d="M142.871,173.978a3.473,3.473,0,0,0,1.193.392c.692.006,1.758-.707,2.24.236.57,1.115-.481,2.037-1.271,2.691A4.717,4.717,0,0,1,140.8,178.3c-3.624-.871-2.563-7.138-2.854-9.776-.021-.195-.012-.32-.2-.442a31.624,31.624,0,0,0-4.47,6.741,10.5,10.5,0,0,0-.854,1.727c-.031.26.125.526.1.857-.113,1.379-2.543,1.591-3.567,1.01-2.024-1.149-.579-4.876-.317-6.685a12.116,12.116,0,0,0,.094-3.917c-.2-.938-1.442-2.013.022-2.8,1.312-.7,3.546-1.138,4.276.562l.4,1.855c2.484-4.639,8.578-6.406,9.152.583.075.917.019,5.577.29,5.96" transform="translate(-94.258 -120.393)" fill="#008442"/>
      <path id="Path_1530" data-name="Path 1530" d="M311,174.491c1.855,4.042-4.2,4.7-6.08,2.024a5.883,5.883,0,0,1-.742-1.838c-.046-.132.093-.231-.194-.189-1.685,2.433-4.658,5.418-7.84,3.713-2.456-1.316-2.1-4.279-1.725-6.571.256-1.568,1.165-3.981,1.241-5.342.036-.646-.463-.856-.045-1.582.662-1.149,4.283-.917,4.735.656.589,2.049-1.8,6.11-1.46,8.678.019.145-.048.263.191.189,1.306-.4,3.778-4.309,4.472-5.582a12,12,0,0,0,1.371-3.242c.021-.789-.409-1.343.695-1.78,1.411-.558,4.2-.563,4.182,1.5-.011,1.2-.9,3.38-1.093,4.811-.257,1.938-.7,5.258,2.291,4.556" transform="translate(-216.79 -120.357)" fill="#008442"/>
      <path id="Path_1531" data-name="Path 1531" d="M75.652,174.42c1.874,4.107-4.369,4.671-6.158,1.973a7.063,7.063,0,0,1-.664-1.787c-.033-.1.062-.273-.194-.189-.127.041-1.352,1.756-1.671,2.069-1.821,1.782-4.514,3.154-6.775,1.22-1.862-1.593-1.464-4-1.118-6.146.245-1.522,1.22-4.194,1.241-5.471.008-.527-.482-.654-.1-1.383.641-1.234,4.334-1.008,4.794.586.575,1.993-1.8,6.122-1.46,8.678.019.145-.048.263.191.189a4.836,4.836,0,0,0,.773-.517c1.432-1.135,4.912-6.559,5.05-8.328.06-.773-.393-1.321.715-1.76,1.56-.618,4.215-.583,4.105,1.653-.079,1.6-1,3.642-1.149,5.425-.063.765-.159,2.5.241,3.076a1.721,1.721,0,0,0,2.183.711" transform="translate(-43.321 -120.287)" fill="#008442"/>
      <path id="Path_1532" data-name="Path 1532" d="M257.2,67.609a18.8,18.8,0,0,1,7.408.766c3.287,1.24,2.92,3.329-.075,4.632a20.245,20.245,0,0,1-12.753.459c-1.41-.519-3.345-1.636-1.969-3.321,1.334-1.633,5.364-2.394,7.389-2.536" transform="translate(-183.763 -49.781)" fill="#ee6805"/>
      <path id="Path_1533" data-name="Path 1533" d="M243.486,29.53c2.092-.123,5.648.506,3.56,3.3-1.8,2.411-6.847,4.244-9.787,4.392-5.225.262-5.158-2.78-1.342-5.208a17.519,17.519,0,0,1,7.569-2.485" transform="translate(-171.854 -21.753)" fill="#ee6805"/>
      <path id="Path_1534" data-name="Path 1534" d="M214.289,4.516a1.566,1.566,0,0,1,1.7,1.583c.238,2.6-2.51,6.5-4.6,7.9-1.048.7-3,1.525-3.529-.162-.93-2.952,3.363-9.015,6.426-9.323" transform="translate(-153.1 -3.321)" fill="#ee6805"/>
      <path id="Path_1535" data-name="Path 1535" d="M175.269.032c1.806-.4,3.557,3.062,3.994,4.458.412,1.316,1.12,5.306-.833,5.673-1.787.336-3.5-3.12-3.933-4.517-.4-1.286-1.075-5.206.772-5.615" transform="translate(-128.269 0)" fill="#ee6805"/>
      <path id="Path_1536" data-name="Path 1536" d="M183.944,66.721a2.374,2.374,0,0,1,1.478,4.441c-3.43,1.634-4.993-3.966-1.478-4.441" transform="translate(-134.103 -49.154)" fill="#008442"/>
    </g>
  </g>
</svg>
